<svg width="217" height="90" viewBox="0 0 217 90" fill="none" xmlns="http://www.w3.org/2000/svg">
<path d="M37.0495 89.0583C33.3043 89.0583 31.5079 87.154 30.6641 85.5497C30.3375 84.9168 29.7387 83.3671 28.2254 77.2502C23.8977 59.8053 20.3212 46.5893 17.6702 37.9787C14.5455 28.0258 11.5407 20.7685 8.73719 16.3814C7.3164 16.5123 6.36377 16.5778 5.83574 16.5778H5.56899C4.11291 16.6025 2.70609 16.0494 1.65502 15.039C1.1321 14.561 0.716193 13.9773 0.434701 13.3265C0.153208 12.6756 0.012526 11.9724 0.0219262 11.263C0.0219262 9.21133 1.40462 7.56888 4.13188 6.35205C6.48897 5.3262 9.68982 4.80237 13.6528 4.80237C15.1987 4.83162 16.7416 4.94821 18.2744 5.15158C19.5796 5.33065 20.8934 5.43995 22.2102 5.47899C22.9342 5.47899 23.9249 5.44078 25.1552 5.36985C26.4671 5.288 27.3653 5.25526 27.877 5.25526C34.4801 5.25526 35.4654 8.94941 35.4654 11.1539C35.4654 13.3584 34.4094 17.0962 27.349 17.0962C26.1677 17.0962 24.4529 16.9925 22.1394 16.7797C27.104 28.0422 32.6293 46.3492 38.6009 71.2915C47.3305 53.7908 54.0721 35.3629 58.6988 16.3541C57.0984 16.4577 56.0097 16.5069 55.3837 16.5069C49.6679 16.5069 48.8186 13.2329 48.8186 11.2794C48.8186 8.75843 50.2503 5.53356 57.093 4.4968C58.726 4.24579 62.406 4.12573 68.3177 4.12573C77.1255 4.12573 81.5947 6.41207 81.5947 10.9193C81.6165 12.4172 81.0787 13.8692 80.0869 14.9899C79.6205 15.5485 79.0375 15.9977 78.3792 16.306C77.7208 16.6143 77.003 16.7741 76.2763 16.7742C75.1955 16.7166 74.125 16.5335 73.0863 16.2286C72.3952 16.0452 71.6935 15.9049 70.9851 15.8084C65.0461 37.7932 58.0674 56.8533 50.2394 72.4756C47.0168 78.909 44.9047 82.8432 43.7887 84.4475C41.731 87.4978 39.4556 89.0583 37.0495 89.0583Z" fill="white"/>
<path d="M139.493 88.119C137.006 88.119 134.507 86.1054 131.872 81.9639C130.147 79.2355 127.468 74.1336 123.707 66.3251C112.624 66.0305 100.027 63.4222 86.2329 58.5658C70.9145 74.4937 65.313 76.3544 62.4333 76.3544C61.7299 76.3579 61.0331 76.2196 60.3841 75.9478C59.7351 75.676 59.1472 75.2761 58.6555 74.772C58.1351 74.2827 57.7214 73.6908 57.4404 73.0334C57.1593 72.3761 57.017 71.6675 57.0224 70.9524C57.0224 69.2717 58.1655 67.5474 60.5172 65.6867L66.4507 60.994C69.2719 58.7436 71.9704 56.3428 74.5345 53.8021C69.9836 51.7286 67.8497 49.5569 67.8497 47.0468C67.8259 45.5326 68.3877 44.0679 69.4175 42.9598C69.9042 42.3997 70.5059 41.9517 71.1815 41.6465C71.8571 41.3413 72.5905 41.1862 73.3315 41.1918C74.4692 41.1918 75.988 41.6447 77.9803 42.5724C80.1034 43.5327 81.6548 44.2094 82.6074 44.6404C94.0663 29.4873 100.571 18.3012 102.009 11.3877C102.417 8.94854 102.852 6.44395 103.299 3.92844V3.83567L103.331 3.74836C103.876 2.04589 105.275 0.0214844 108.835 0.0214844C111.845 0.0214844 113.19 1.72395 113.767 3.15359C114.269 4.58425 114.6 6.06984 114.752 7.57894C114.902 9.10586 115.145 10.622 115.482 12.1188C118.247 23.3977 123.647 37.7214 131.502 54.7243C132.531 54.6861 133.538 54.6206 134.507 54.5333L136.374 54.3914H136.423C140.511 54.3914 142.76 56.4759 142.76 60.2683C142.76 63.8533 140.778 65.9541 137.147 66.2433C138.334 68.5078 140.016 71.5144 142.172 75.2304C144.746 79.6994 145.04 81.4509 145.04 82.3786C145.057 85.9963 143.032 88.119 139.493 88.119ZM94.0118 49.033C101.817 51.7466 109.906 53.5537 118.122 54.4187C114.081 45.3785 110.564 36.1123 107.588 26.6663C103.821 34.5583 99.2723 42.0514 94.0118 49.033Z" fill="white"/>
<path d="M187.577 88.026C174.055 88.026 163.216 87.1857 155.361 85.5269C152.781 84.9812 151.006 84.3209 149.956 83.5406C149.277 83.0073 148.735 82.32 148.374 81.5355C148.012 80.7509 147.842 79.8915 147.876 79.028C147.876 77.2109 148.671 74.1607 153.984 74.1607C155.444 74.1816 156.9 74.3148 158.339 74.559C157.55 65.4628 157.147 57.578 157.147 51.0955C157.185 39.5458 157.885 28.0079 159.243 16.5385L158.655 16.5877H158.241C154.73 16.5877 152.716 14.6178 152.716 11.1856C152.66 10.0396 152.954 8.9039 153.558 7.92925C154.161 6.9546 155.047 6.18718 156.096 5.72895C157.876 4.89408 160.642 4.47937 164.556 4.47937C170.625 4.47937 175.492 5.25968 179.025 6.793C182.694 8.40271 184.55 10.6126 184.55 13.3901C184.564 14.9133 183.977 16.3804 182.917 17.4716C182.431 18.0227 181.834 18.4654 181.167 18.7708C180.499 19.0763 179.775 19.2379 179.041 19.2451C178.442 19.2451 177.343 19.0923 174.648 17.81C173.577 17.2891 172.46 16.8689 171.311 16.5549C169.63 27.9643 168.775 39.4806 168.753 51.0136C168.753 56.0283 169.297 64.4424 170.386 76.0378C176.771 76.7198 181.997 77.0363 185.807 77.0363C192.83 77.0363 198.469 75.8195 202.574 73.4131C203.314 72.3654 204.294 70.0464 205.018 64.9608C205.611 60.7046 206.069 59.4332 206.357 58.8439C206.956 57.6271 208.268 56.1592 211.115 56.1592C213.292 56.1592 216.999 57.1578 216.999 63.8531C216.999 72.229 214.468 78.6351 209.476 82.9077V83.2023L208.829 83.6007C204.114 86.5418 196.956 88.026 187.577 88.026Z" fill="white"/>
</svg>
