<svg width="120" height="49" viewBox="0 0 120 49" fill="none" xmlns="http://www.w3.org/2000/svg">
<g clip-path="url(#clip0_967_641)">
<path d="M20.4338 48.997C18.3685 48.997 17.3779 47.9494 16.9126 47.0668C16.7325 46.7186 16.4023 45.866 15.5677 42.5009C13.1812 32.9038 11.209 25.6332 9.74705 20.8962C8.02396 15.4208 6.36691 11.4283 4.82094 9.01473C4.03744 9.08678 3.51211 9.1228 3.22093 9.1228H3.07383C2.27087 9.13638 1.49508 8.83211 0.915462 8.27626C0.627101 8.01329 0.397747 7.6922 0.242517 7.33414C0.0872879 6.97607 0.00970833 6.58918 0.0148921 6.19895C0.0148921 5.07024 0.77738 4.16666 2.28133 3.49724C3.58115 2.93288 5.34627 2.6447 7.53165 2.6447C8.38412 2.6608 9.23501 2.72494 10.0803 2.83682C10.8 2.93533 11.5245 2.99546 12.2506 3.01694C12.6499 3.01694 13.1962 2.99592 13.8747 2.95689C14.5981 2.91187 15.0934 2.89386 15.3756 2.89386C19.0169 2.89386 19.5603 4.92614 19.5603 6.13891C19.5603 7.35168 18.9779 9.40798 15.0844 9.40798C14.433 9.40798 13.4874 9.35094 12.2116 9.23387C14.9493 15.4298 17.9963 25.5012 21.2894 39.2228C26.1033 29.5951 29.8209 19.4572 32.3724 8.99972C31.4898 9.05675 30.8894 9.08377 30.5442 9.08377C27.3922 9.08377 26.9239 7.28264 26.9239 6.20796C26.9239 4.82108 27.7134 3.04696 31.4868 2.4766C32.3874 2.33851 34.4167 2.27246 37.6767 2.27246C42.5338 2.27246 44.9984 3.53026 44.9984 6.00983C45.0104 6.83391 44.7138 7.6327 44.1668 8.24924C43.9096 8.55653 43.5882 8.80369 43.2251 8.97329C42.8621 9.14289 42.4662 9.23082 42.0655 9.23087C41.4695 9.19916 40.8792 9.09843 40.3064 8.93068C39.9253 8.82981 39.5383 8.75261 39.1477 8.69953C35.8726 20.7942 32.0241 31.2798 27.7074 39.8743C25.9303 43.4135 24.7656 45.5779 24.1502 46.4604C23.0154 48.1385 21.7607 48.997 20.4338 48.997Z" fill="white"/>
<path d="M76.9266 48.4808C75.5547 48.4808 74.1769 47.3731 72.7239 45.0947C71.7723 43.5937 70.2954 40.7869 68.2211 36.4912C62.1092 36.3291 55.1628 34.8942 47.556 32.2225C39.1087 40.9851 36.0197 42.0087 34.4317 42.0087C34.0438 42.0106 33.6595 41.9345 33.3017 41.785C32.9438 41.6354 32.6196 41.4155 32.3484 41.1382C32.0615 40.869 31.8333 40.5433 31.6783 40.1817C31.5234 39.82 31.4449 39.4303 31.4478 39.0368C31.4478 38.1122 32.0782 37.1636 33.375 36.14L36.6471 33.5584C38.2028 32.3203 39.6909 30.9996 41.1049 29.6019C38.5954 28.4611 37.4186 27.2664 37.4186 25.8855C37.4055 25.0525 37.7153 24.2467 38.2832 23.6371C38.5515 23.3289 38.8834 23.0825 39.2559 22.9146C39.6285 22.7467 40.0329 22.6614 40.4415 22.6645C41.0689 22.6645 41.9065 22.9136 43.0051 23.424C44.1759 23.9523 45.0314 24.3245 45.5568 24.5617C51.8758 16.2254 55.463 10.0715 56.2555 6.26809C56.4807 4.92624 56.7208 3.54837 56.967 2.1645V2.11346L56.985 2.06543C57.2852 1.12884 58.0567 0.0151367 60.0199 0.0151367C61.68 0.0151367 62.4214 0.951726 62.7396 1.73822C63.0168 2.52528 63.1992 3.34256 63.283 4.17277C63.3655 5.01278 63.4998 5.84689 63.6852 6.67034C65.2102 12.8753 68.1881 20.7553 72.5198 30.1092C73.0872 30.0882 73.6425 30.0521 74.1769 30.0041L75.2065 29.9261H75.2335C77.488 29.9261 78.7277 31.0728 78.7277 33.1591C78.7277 35.1314 77.635 36.2871 75.6328 36.4462C76.2872 37.692 77.2148 39.346 78.4036 41.3903C79.8234 43.8489 79.9855 44.8125 79.9855 45.3228C79.9945 47.3131 78.8778 48.4808 76.9266 48.4808ZM51.8457 26.9782C56.1496 28.471 60.6106 29.4652 65.1411 29.9411C62.9131 24.9677 60.9737 19.87 59.3325 14.6734C57.2548 19.0151 54.7466 23.1374 51.8457 26.9782Z" fill="white"/>
<path d="M103.443 48.4299C95.9859 48.4299 90.0091 47.9676 85.6774 47.055C84.2545 46.7548 83.2759 46.3916 82.6965 45.9623C82.3224 45.6689 82.0234 45.2908 81.8241 44.8592C81.6247 44.4276 81.5307 43.9548 81.5498 43.4797C81.5498 42.4801 81.9881 40.802 84.9179 40.802C85.7228 40.8135 86.5257 40.8868 87.3194 41.0212C86.8842 36.017 86.662 31.6793 86.662 28.113C86.6834 21.7591 87.0693 15.4117 87.8178 9.10197L87.4935 9.12899H87.2654C85.3292 9.12899 84.2185 8.04531 84.2185 6.15711C84.1879 5.52668 84.3498 4.90187 84.6828 4.36568C85.0158 3.82949 85.504 3.4073 86.0826 3.15521C87.0643 2.69592 88.5892 2.46777 90.7476 2.46777C94.0947 2.46777 96.7784 2.89705 98.7266 3.74058C100.75 4.62615 101.774 5.84191 101.774 7.36988C101.781 8.20785 101.458 9.01495 100.873 9.6153C100.605 9.91848 100.276 10.162 99.9079 10.33C99.5397 10.4981 99.1404 10.587 98.7357 10.5909C98.4055 10.5909 97.7991 10.5069 96.3131 9.80142C95.7224 9.51488 95.1064 9.28374 94.473 9.11098C93.5462 15.3877 93.0746 21.7232 93.0621 28.068C93.0621 30.8267 93.3623 35.4557 93.9626 41.8347C97.4839 42.2099 100.366 42.384 102.467 42.384C106.339 42.384 109.449 41.7146 111.713 40.3908C112.121 39.8144 112.661 38.5386 113.061 35.7408C113.388 33.3994 113.64 32.6999 113.799 32.3757C114.129 31.7063 114.853 30.8988 116.423 30.8988C117.624 30.8988 119.668 31.4481 119.668 35.1315C119.668 39.7394 118.272 43.2636 115.519 45.6141V45.7762L115.162 45.9953C112.562 47.6133 108.615 48.4299 103.443 48.4299Z" fill="white"/>
</g>
<defs>
<clipPath id="clip0_967_641">
<rect width="119.68" height="49" fill="white"/>
</clipPath>
</defs>
</svg>
