<svg width="108" height="20" viewBox="0 0 108 20" fill="none" xmlns="http://www.w3.org/2000/svg">
<path d="M10.7532 14.8263C10.4859 14.6908 10.1712 14.6908 9.90393 14.8263L6.47808 16.5626C5.75252 16.9303 4.93557 16.2661 5.13232 15.4683L5.93335 12.2204C6.00994 11.9098 5.92921 11.581 5.71796 11.3431L3.07368 8.36485C2.54659 7.77119 2.92101 6.82262 3.70661 6.76137L7.39544 6.47373C7.7405 6.44683 8.04379 6.23174 8.187 5.91238L9.46417 3.06419C9.8015 2.31194 10.8556 2.31193 11.1929 3.06419L12.4701 5.91237C12.6133 6.23174 12.9166 6.44683 13.2617 6.47373L16.9505 6.76137C17.7361 6.82262 18.1105 7.77119 17.5834 8.36485L14.9391 11.3431C14.7279 11.581 14.6472 11.9098 14.7238 12.2204L15.5248 15.4683C15.7215 16.2661 14.9046 16.9303 14.179 16.5626L10.7532 14.8263Z" fill="#F5C107"/>
<path d="M32.4678 14.8263C32.2005 14.6908 31.8859 14.6908 31.6186 14.8263L28.1927 16.5626C27.4672 16.9303 26.6502 16.2661 26.847 15.4683L27.648 12.2204C27.7246 11.9098 27.6439 11.581 27.4326 11.3431L24.7883 8.36485C24.2613 7.77119 24.6357 6.82262 25.4213 6.76137L29.1101 6.47373C29.4552 6.44683 29.7584 6.23174 29.9017 5.91238L31.1788 3.06419C31.5162 2.31194 32.5703 2.31193 32.9076 3.06419L34.1848 5.91237C34.328 6.23174 34.6313 6.44683 34.9763 6.47373L38.6652 6.76137C39.4508 6.82262 39.8252 7.77119 39.2981 8.36485L36.6538 11.3431C36.4426 11.581 36.3618 11.9098 36.4384 12.2204L37.2394 15.4683C37.4362 16.2661 36.6192 16.9303 35.8937 16.5626L32.4678 14.8263Z" fill="#F5C107"/>
<path d="M54.1814 14.8263C53.9141 14.6908 53.5995 14.6908 53.3322 14.8263L49.9063 16.5626C49.1807 16.9303 48.3638 16.2661 48.5605 15.4683L49.3616 12.2204C49.4382 11.9098 49.3574 11.581 49.1462 11.3431L46.5019 8.36485C45.9748 7.77119 46.3492 6.82262 47.1348 6.76137L50.8237 6.47373C51.1687 6.44683 51.472 6.23174 51.6152 5.91238L52.8924 3.06419C53.2297 2.31194 54.2838 2.31193 54.6212 3.06419L55.8983 5.91237C56.0415 6.23174 56.3448 6.44683 56.6899 6.47373L60.3787 6.76137C61.1643 6.82262 61.5387 7.77119 61.0116 8.36485L58.3674 11.3431C58.1561 11.581 58.0754 11.9098 58.152 12.2204L58.953 15.4683C59.1498 16.2661 58.3328 16.9303 57.6072 16.5626L54.1814 14.8263Z" fill="#F5C107"/>
<path d="M75.8961 14.8263C75.6288 14.6908 75.3142 14.6908 75.0469 14.8263L71.621 16.5626C70.8955 16.9303 70.0785 16.2661 70.2753 15.4683L71.0763 12.2204C71.1529 11.9098 71.0722 11.581 70.8609 11.3431L68.2166 8.36485C67.6895 7.77119 68.064 6.82262 68.8496 6.76137L72.5384 6.47373C72.8834 6.44683 73.1867 6.23174 73.3299 5.91238L74.6071 3.06419C74.9444 2.31194 75.9986 2.31193 76.3359 3.06419L77.6131 5.91237C77.7563 6.23174 78.0596 6.44683 78.4046 6.47373L82.0934 6.76137C82.879 6.82262 83.2535 7.77119 82.7264 8.36485L80.0821 11.3431C79.8708 11.581 79.7901 11.9098 79.8667 12.2204L80.6677 15.4683C80.8645 16.2661 80.0475 16.9303 79.322 16.5626L75.8961 14.8263Z" fill="#F5C107"/>
<path d="M97.6107 14.8263C97.3434 14.6908 97.0288 14.6908 96.7615 14.8263L93.3356 16.5626C92.6101 16.9303 91.7931 16.2661 91.9899 15.4683L92.7909 12.2204C92.8675 11.9098 92.7868 11.581 92.5755 11.3431L89.9312 8.36485C89.4041 7.77119 89.7786 6.82262 90.5642 6.76137L94.253 6.47373C94.598 6.44683 94.9013 6.23174 95.0445 5.91238L96.3217 3.06419C96.659 2.31194 97.7132 2.31193 98.0505 3.06419L99.3277 5.91237C99.4709 6.23174 99.7741 6.44683 100.119 6.47373L103.808 6.76137C104.594 6.82262 104.968 7.77119 104.441 8.36485L101.797 11.3431C101.585 11.581 101.505 11.9098 101.581 12.2204L102.382 15.4683C102.579 16.2661 101.762 16.9303 101.037 16.5626L97.6107 14.8263Z" fill="#F5C107"/>
</svg>
